<svg width="380" height="239" viewBox="0 0 380 239" fill="none" xmlns="http://www.w3.org/2000/svg">
<g clip-path="url(#clip0_1245_42422)">
<rect width="380" height="239" rx="24" fill="#FEBB1B"/>
<g opacity="0.5">
<path opacity="0.1" d="M242.831 -32.3613L371.137 44.009V173.137L242.831 96.0753V-32.3613Z" fill="white"/>
<path opacity="0.2" d="M498.993 -32.2832L370.691 44.0071V173L498.993 96.0188V-32.2832Z" fill="white"/>
<path opacity="0.3" d="M242.831 -31.938L371.137 -109L499.442 -31.938V-31.3616L371.137 45.7004L242.831 -31.3616V-31.938Z" fill="white"/>
<path opacity="0.1" d="M-119 40.8926L9.30562 117.263V246.391L-119 169.329V40.8926Z" fill="white"/>
<path opacity="0.2" d="M137.162 40.9707L8.86011 117.261V246.254L137.162 169.273V40.9707Z" fill="white"/>
<path opacity="0.3" d="M-119 41.3159L9.30562 -35.7461L137.611 41.3159V41.8923L9.30562 118.954L-119 41.8923V41.3159Z" fill="white"/>
<path opacity="0.1" d="M189.111 -0.239258L242.609 31.6037V85.4445L189.111 53.3131V-0.239258Z" fill="white"/>
<path opacity="0.2" d="M295.919 -0.207031L242.423 31.6026V85.3868L295.919 53.2891V-0.207031Z" fill="white"/>
<path opacity="0.3" d="M189.111 -0.0629463L242.609 -32.1943L296.107 -0.0629463V0.177376L242.609 32.3088L189.111 0.177376V-0.0629463Z" fill="white"/>
<path opacity="0.1" d="M233.951 205.316L287.449 237.159V291L233.951 258.869V205.316Z" fill="white"/>
<path opacity="0.2" d="M340.759 205.349L287.263 237.158V290.942L340.759 258.845V205.349Z" fill="white"/>
<path opacity="0.3" d="M233.951 205.493L287.449 173.361L340.947 205.493V205.733L287.449 237.864L233.951 205.733V205.493Z" fill="white"/>
</g>
</g>
<defs>
<clipPath id="clip0_1245_42422">
<rect width="380" height="239" rx="24" fill="white"/>
</clipPath>
</defs>
</svg>
