<svg width="32" height="33" viewBox="0 0 32 33" fill="none" xmlns="http://www.w3.org/2000/svg">
<path fill-rule="evenodd" clip-rule="evenodd" d="M18.3796 28.7756C19.1544 27.4337 20.4639 26.5154 21.8718 25.8681C26.532 23.7253 29.7677 19.0157 29.7677 13.5503C29.7677 6.06669 23.701 0 16.2173 0C8.73368 0 2.66699 6.06669 2.66699 13.5503C2.66699 19.0158 5.90276 23.7255 10.5631 25.8682C11.971 26.5155 13.2805 27.4338 14.0553 28.7757L15.9057 31.9807C16.0442 32.2207 16.3906 32.2207 16.5292 31.9807L18.3796 28.7756Z" fill="url(#paint0_linear_228_10749)"/>
<g clip-path="url(#clip0_228_10749)">
<path d="M24.0182 12.5619V12.5129L24.0089 12.4648C23.975 12.2937 23.8711 11.8711 23.6409 11.6454C23.4472 11.4555 23.1548 11.3587 22.7723 11.3587C22.5817 11.3587 22.4135 11.3824 22.3362 11.3954C22.3105 11.3967 22.2849 11.3991 22.2594 11.4027C22.0847 10.6234 21.8009 9.48162 21.5259 8.91165C21.0184 7.86024 20.3378 7.65428 19.7394 7.54388C19.2525 7.45469 18.7607 7.39374 18.2667 7.36135V5.96025C18.2669 5.89918 18.2429 5.84051 18.2 5.79708C18.1571 5.75365 18.0987 5.729 18.0376 5.72852H14.3761C14.2506 5.72852 14.1473 5.83267 14.1473 5.96025V7.36135C13.6533 7.39378 13.1615 7.45472 12.6746 7.54388C12.0765 7.65428 11.3956 7.86024 10.8884 8.91165C10.6132 9.48162 10.3296 10.6234 10.1549 11.4027C10.1294 11.399 10.1038 11.3965 10.0781 11.3954C10.0007 11.3824 9.83254 11.3587 9.64194 11.3587C9.25918 11.3587 8.96704 11.4553 8.77306 11.6459C8.54314 11.8711 8.43925 12.2937 8.4054 12.465L8.39551 12.5129V12.5619C8.39606 12.8124 8.49597 13.0525 8.67331 13.2294C8.85065 13.4064 9.09094 13.5058 9.34146 13.5058H9.53545C9.2998 13.8802 8.96131 14.4877 8.72463 15.2118C8.57074 15.6841 8.6236 16.4605 8.69078 17.2151L8.70171 17.3406C8.77905 18.2337 9.30163 18.5412 9.79921 18.6272V19.8463C9.79921 20.1012 10.0054 20.3097 10.2567 20.3097H12.0874C12.3392 20.3097 12.5452 20.1012 12.5452 19.8465V18.8524C13.4127 18.9078 14.5365 18.9506 16.2504 18.9506C17.9262 18.9506 19.025 18.9102 19.8683 18.8566V19.8468C19.8683 20.1017 20.0745 20.31 20.3261 20.31H22.1568C22.4086 20.31 22.6145 20.1014 22.6145 19.8468V18.6274C23.1129 18.5407 23.636 18.2327 23.712 17.3412L23.7232 17.2156C23.7904 16.4611 23.8433 15.6846 23.6891 15.2126C23.4527 14.4884 23.1142 13.8807 22.8786 13.5063H23.0723C23.3228 13.5061 23.5631 13.4066 23.7404 13.2296C23.9177 13.0525 24.0176 12.8124 24.0182 12.5619ZM17.5887 6.30786C17.5887 6.24407 17.6382 6.19199 17.6991 6.19199C17.7595 6.19199 17.809 6.24407 17.809 6.30786V7.00307C17.8097 7.03295 17.7985 7.0619 17.7779 7.08357C17.7573 7.10523 17.729 7.11786 17.6991 7.11868C17.6692 7.11786 17.6408 7.10525 17.6201 7.0836C17.5994 7.06195 17.5881 7.033 17.5887 7.00307V6.30786ZM16.7117 6.55053L16.5584 6.29119C16.5261 6.23678 16.5511 6.19173 16.6141 6.19173H16.6373C16.7003 6.19173 16.7711 6.22974 16.7943 6.27635C16.8177 6.32322 16.8596 6.40654 16.8872 6.46252L16.9102 6.51512C16.9117 6.51512 16.932 6.46981 16.9549 6.41461L16.9794 6.36124L17.0109 6.29588C17.0274 6.26592 17.0512 6.24065 17.0801 6.22243C17.109 6.20421 17.1421 6.19364 17.1763 6.19173H17.1979C17.2606 6.19173 17.2856 6.23625 17.2526 6.29093L17.0984 6.54584C17.0821 6.57619 17.0736 6.61009 17.0736 6.64453C17.0736 6.67896 17.0821 6.71286 17.0984 6.74321L17.2664 7.02025C17.2994 7.07415 17.2749 7.11868 17.2119 7.11868H17.1875C17.1244 7.11868 17.0534 7.08092 17.0291 7.03484L16.9318 6.8484L16.8992 6.78487C16.8977 6.78487 16.876 6.8307 16.8513 6.88668L16.8214 6.95125L16.7909 7.01453C16.7747 7.0445 16.751 7.06982 16.7222 7.08805C16.6934 7.10629 16.6604 7.11683 16.6263 7.11868H16.6047C16.5417 7.11868 16.5167 7.07415 16.5493 7.01973L16.7115 6.74894C16.7275 6.71833 16.7359 6.68431 16.7359 6.64977C16.736 6.61522 16.7277 6.58118 16.7117 6.55053ZM15.4726 7.00854L15.6986 6.30187C15.71 6.27087 15.7303 6.24391 15.7569 6.22433C15.7836 6.20475 15.8153 6.19341 15.8483 6.19173H15.9074C15.9704 6.19173 16.0381 6.24146 16.0574 6.30187L16.2871 7.00854C16.3066 7.06895 16.2714 7.11868 16.2084 7.11868H16.2009C16.1679 7.11707 16.1361 7.1057 16.1096 7.08599C16.0831 7.06629 16.063 7.03915 16.0519 7.00802L16.0465 6.99135C16.0354 6.96024 16.0153 6.93312 15.9888 6.91342C15.9623 6.89372 15.9305 6.88233 15.8975 6.88069H15.8486C15.8158 6.88233 15.7842 6.89381 15.758 6.91364C15.7318 6.93347 15.7122 6.96073 15.7017 6.99187L15.6971 7.00776C15.6868 7.03891 15.6674 7.06623 15.6413 7.08609C15.6152 7.10594 15.5837 7.1174 15.551 7.11894C15.4885 7.11868 15.4531 7.06895 15.4726 7.00854ZM14.7193 6.19173H15.2359C15.2989 6.19173 15.3502 6.23131 15.3502 6.27974C15.3502 6.32869 15.2989 6.36801 15.2359 6.36801H15.2C15.137 6.36801 15.0857 6.42008 15.0857 6.48387V7.00281C15.0857 7.06634 15.0362 7.11842 14.9755 7.11842C14.9149 7.11842 14.8651 7.06634 14.8651 7.00281V6.48387C14.8653 6.45337 14.8533 6.42406 14.8319 6.40234C14.8105 6.38063 14.7813 6.36828 14.7508 6.36801H14.7193C14.6563 6.36801 14.605 6.32869 14.605 6.27974C14.605 6.23157 14.6563 6.19173 14.7193 6.19173ZM22.3648 13.0092C22.3143 13.0955 22.271 13.1859 22.2352 13.2792C21.93 12.9079 21.4769 12.664 21.009 12.664C20.2615 12.664 19.76 13.2863 19.8886 14.0541C20.017 14.822 20.7273 15.4443 21.4738 15.4443C22.2214 15.4443 22.7234 14.822 22.5947 14.0541C22.5879 14.0162 22.5797 13.9785 22.57 13.9411C22.7783 14.2919 23.0371 14.7905 23.2259 15.367C23.3728 15.8177 23.267 16.8175 23.2259 17.2979C23.2056 17.5354 23.1572 18.1106 22.3682 18.1595C20.8403 18.254 19.9772 18.4564 16.2506 18.4564C12.5246 18.4564 11.5961 18.2525 10.0458 18.1595C9.25684 18.1127 9.20867 17.5357 9.1881 17.2979C9.14696 16.8175 9.04125 15.8177 9.1881 15.367C9.37688 14.7905 9.63569 14.2919 9.844 13.9411C9.83443 13.9785 9.82618 14.0162 9.81926 14.0541C9.69063 14.822 10.1924 15.4443 10.9399 15.4443C11.6864 15.4443 12.397 14.822 12.5254 14.0541C12.654 13.2863 12.1523 12.664 11.4047 12.664C10.9371 12.664 10.4837 12.9082 10.1788 13.2792C10.1431 13.1858 10.0996 13.0955 10.0489 13.0092C10.0421 13.0097 10.0351 13.0116 10.0281 13.0116H9.34146C9.08994 13.0116 8.88372 12.8093 8.88372 12.5619C8.88372 12.5619 8.96678 12.1435 9.11259 12.0008C9.2321 11.8833 9.449 11.8531 9.64168 11.8531C9.84868 11.8531 10.0278 11.8883 10.0278 11.8883C10.2463 11.8883 10.4298 12.0409 10.4749 12.2427C10.6952 11.1436 11.0425 9.71804 11.3266 9.1288C11.7177 8.31824 12.1707 8.1391 12.7621 8.03C13.5911 7.8769 14.4842 7.79827 16.2066 7.79827C17.929 7.79827 18.8226 7.8769 19.6514 8.03C20.2427 8.1391 20.6958 8.31798 21.0869 9.1288C21.371 9.71804 21.7186 11.1436 21.9386 12.2427C21.962 12.1418 22.0189 12.0518 22.1001 11.9874C22.1812 11.923 22.2818 11.8881 22.3854 11.8883C22.3854 11.8883 22.5648 11.8531 22.7718 11.8531C22.9645 11.8531 23.1814 11.8833 23.3006 12.0008C23.4467 12.1435 23.5295 12.5619 23.5295 12.5619C23.5295 12.809 23.3235 13.0116 23.0718 13.0116H22.3857C22.3786 13.0116 22.3721 13.0097 22.3648 13.0092ZM21.3967 14.9808C20.8989 14.9808 20.4253 14.5655 20.3399 14.0539C20.2539 13.5422 20.5885 13.1269 21.0869 13.1269C21.5842 13.1269 22.0581 13.5422 22.1438 14.0539C22.2294 14.5655 21.8951 14.9808 21.3967 14.9808ZM10.2702 14.0541C10.3556 13.5425 10.8293 13.1272 11.3271 13.1272C11.8255 13.1272 12.1598 13.5425 12.0741 14.0541C11.989 14.5658 11.5151 14.9811 11.0173 14.9811C10.5189 14.9808 10.1846 14.5655 10.2702 14.0541Z" fill="#35383F"/>
<path d="M20.0979 8.81569C19.8604 8.65113 18.0635 8.37695 16.2075 8.37695C14.3516 8.37695 12.5549 8.65113 12.3172 8.81569C11.4147 9.44086 11.1729 12.3279 11.1729 12.3279C11.1729 12.3279 11.6374 12.5474 12.3172 12.5474C12.8609 12.5474 13.0038 12.1938 16.2075 12.1938C19.4112 12.1938 19.5544 12.5474 20.0979 12.5474C20.7777 12.5474 21.2422 12.3279 21.2422 12.3279C21.2422 12.3279 21.0006 9.44112 20.0979 8.81569ZM19.1389 16.9609C18.0127 16.5125 14.3385 16.4542 13.2738 16.9609C13.0754 17.0551 12.8703 17.5293 13.1171 17.5293H19.2959C19.5427 17.529 19.3485 17.0444 19.1389 16.9609Z" fill="#35383F"/>
<path d="M10.7146 17.2976C10.9674 17.2976 11.1723 17.09 11.1723 16.8341C11.1723 16.5781 10.9674 16.3706 10.7146 16.3706C10.4618 16.3706 10.2568 16.5781 10.2568 16.8341C10.2568 17.09 10.4618 17.2976 10.7146 17.2976Z" fill="#35383F"/>
<path d="M21.6999 17.2976C21.9527 17.2976 22.1577 17.09 22.1577 16.8341C22.1577 16.5781 21.9527 16.3706 21.6999 16.3706C21.4471 16.3706 21.2422 16.5781 21.2422 16.8341C21.2422 17.09 21.4471 17.2976 21.6999 17.2976Z" fill="#35383F"/>
<path d="M17.9494 15.596C18.3595 15.596 18.5894 15.2731 18.4597 14.8786L18.4337 14.801C18.304 14.4065 17.8559 13.9097 17.4513 13.8316C16.8388 13.7124 15.5763 13.7124 14.9633 13.8316C14.559 13.9097 14.1106 14.4065 13.9809 14.801L13.9551 14.8786C13.8255 15.2731 14.0554 15.596 14.4655 15.596H17.9494ZM14.2806 14.9903L14.3072 14.9109C14.4092 14.6008 14.78 14.2214 15.0284 14.173C15.2964 14.1209 15.7369 14.0899 16.2077 14.0899C16.6784 14.0899 17.1195 14.1209 17.3869 14.173C17.6356 14.2214 18.0064 14.6008 18.109 14.9125L18.1342 14.9882C18.161 15.0695 18.159 15.1398 18.1288 15.1817C18.0986 15.2236 18.0332 15.2483 17.9496 15.2483H14.4657C14.3819 15.2483 14.3168 15.2236 14.2866 15.1817C14.2564 15.1398 14.2546 15.0695 14.2806 14.9903Z" fill="#35383F"/>
<path d="M17.456 14.3217H14.9579C14.8678 14.367 14.7637 14.4509 14.6686 14.5535H17.7453C17.6502 14.4509 17.5461 14.367 17.456 14.3217ZM17.9999 14.9495C17.9793 14.892 17.9528 14.8369 17.9208 14.7849H14.4931C14.4614 14.8363 14.4352 14.8908 14.4148 14.9477L14.3916 15.0167H18.0221L17.9999 14.9495ZM15.8729 6.72387C15.932 6.72387 15.9666 6.67961 15.9502 6.62545C15.9289 6.55563 15.9083 6.48558 15.8885 6.41532C15.8885 6.41532 15.8851 6.40334 15.8711 6.34814C15.8695 6.34814 15.8562 6.39892 15.8422 6.46089C15.8422 6.46089 15.8393 6.47339 15.8239 6.52702L15.7984 6.61295C15.7802 6.67388 15.8138 6.72387 15.8729 6.72387Z" fill="#35383F"/>
</g>
<defs>
<linearGradient id="paint0_linear_228_10749" x1="29.7677" y1="32.1607" x2="-3.22136" y2="24.1007" gradientUnits="userSpaceOnUse">
<stop stop-color="#FEBB1B"/>
<stop offset="1" stop-color="#FFC740"/>
</linearGradient>
<clipPath id="clip0_228_10749">
<rect width="16.6642" height="16.6642" fill="white" transform="translate(7.875 4.16602)"/>
</clipPath>
</defs>
</svg>
